

<svg width="500" height="500" viewBox="0 0 500 500" fill="none" xmlns="http://www.w3.org/2000/svg">
	<rect width="500" height="500" fill="#0369A1"/>
	<g clip-path="url(#clip0_5_3)">
	<path d="M310.913 244.767H182.162C179.717 244.767 178.088 246.8 178.088 248.832V346.38C178.088 374.832 201.312 398 229.832 398H264.057C292.578 398 315.802 374.832 315.802 346.38V248.832C315.394 246.393 313.357 244.767 310.913 244.767Z" fill="white"/>
	<path d="M295.43 380.929C324.358 364.671 374.474 316.302 366.325 282.161C364.287 273.22 358.583 266.31 350.027 262.244C330.877 253.303 303.171 264.277 299.912 265.497L309.283 284.599C315.802 281.755 332.1 277.284 339.84 280.942C341.47 281.755 343.1 282.973 343.915 286.632C348.805 306.549 309.69 348.413 283.614 363.045L295.43 380.929Z" fill="white"/>
	<path d="M255.44 225.902C255.651 226.324 255.651 225.691 255.862 225.269L256.285 223.581C256.496 222.526 256.707 221.26 256.918 220.205C257.129 217.884 257.341 215.353 257.341 212.821C257.129 207.757 256.074 202.483 254.173 197.63C252.061 192.778 249.105 188.769 245.937 185.604C244.248 183.917 242.559 182.651 240.869 181.385L236.646 178.431C231.789 175.055 227.355 170.625 224.187 166.194C222.709 163.873 221.653 161.553 221.231 159.654C220.808 157.755 220.808 156.489 221.02 155.645C221.231 155.223 221.231 154.801 221.653 154.168C222.075 153.535 222.287 152.48 222.92 151.636C223.976 149.738 225.454 148.05 226.932 146.362C230.1 143.408 233.901 141.298 237.702 140.876C241.503 140.243 245.515 141.087 249.527 142.986C251.428 144.041 253.54 145.096 255.44 146.784C256.496 147.628 257.341 148.261 258.396 149.316C259.452 150.37 260.297 151.214 261.564 151.425L265.576 152.058C274.234 153.535 282.047 145.729 283.314 134.336C283.948 128.217 282.47 122.099 279.513 117.668C278.246 115.77 276.557 114.293 274.868 113.027C273.178 111.761 271.278 110.706 269.588 109.44C265.999 107.119 261.986 105.431 257.974 104.166C249.95 101.423 240.869 101.212 232.423 103.955C223.976 106.697 215.951 112.394 209.616 120.411C206.449 124.631 203.704 129.061 201.592 134.336C200.536 136.868 199.691 139.821 198.847 142.986C198.002 146.362 197.58 150.16 197.369 153.746C197.158 161.342 199.058 168.304 201.592 173.789C204.126 179.275 207.294 183.284 210.461 186.659C216.796 193.411 223.554 197.208 230.311 200.162L232.845 201.217L234.112 201.639L234.957 201.85C236.224 202.272 237.28 202.694 238.335 203.327C240.447 204.382 242.559 205.648 244.248 207.757C245.938 209.656 247.627 212.188 248.894 215.142C249.527 216.619 250.161 218.306 250.583 220.205C250.794 221.049 251.006 222.104 251.428 222.948L251.85 224.425C252.061 225.058 252.061 225.269 252.484 226.957C252.906 228.433 253.962 229.277 255.229 228.644C255.229 229.067 255.651 227.379 255.44 225.902Z" fill="white"/>
	</g>
	<defs>
	<clipPath id="clip0_5_3">
	<rect width="191" height="296" fill="white" transform="translate(177 102)"/>
	</clipPath>
	</defs>
	</svg>
	